# xmcd
#
# Track frame offsets: 
#        150
#        43858
#        73246
#        108868
#        140567
#        171209
#        220109
#        288454
#        303331
#        318712
#
# Disc length: 4367 seconds
#
# Revision: 0
# Processed by: cddbd v1.5.2PL0 Copyright (c) Steve Scherf et al.
# Submitted via: ExactAudioCopy v1.0b3
#
DISCID=9c110d0a
DTITLE=Ngoc Huyen, VA - Giu Mai Tinh Yeu (LK 5 Mua)
DYEAR=2010
DGENRE=
TTITLE0=Various Artist - LK Gai Xuan, Ly 10 thuong, Ben duyen lanh
TTITLE1=Ngoc Huyen, Thanh Tuyen - LK Suong lanh chieu dong, Ke chuyen 
TTITLE1=trong dem
TTITLE2=Ngoc Huyen, Kim Tu Long - Giu mai tinh yeu (tan co)
TTITLE3=Ngoc Huyen, Truong Vu - Nhac canh Cleopatra
TTITLE4=Ngoc Huyen, Son Tuyen - LK Tinh ca tren lua, Gap nhau, Thuong 
TTITLE4=qua VN
TTITLE5=Various Artist - Hon que y nhac (tan co)
TTITLE6=Various Artist - LK 5 mua (5 bai ca)
TTITLE7=Shayla, Nguyen Phuoc Huy - SOS
TTITLE8=Various Artist - Party in USA
TTITLE9=Various Artist - Giu mai tinh yeu (Phi Van diep khuc)
EXTD=
EXTT0=
EXTT1=
EXTT2=
EXTT3=
EXTT4=
EXTT5=
EXTT6=
EXTT7=
EXTT8=
EXTT9=
PLAYORDER=
